<svg width="512" height="512" viewBox="0 0 512 512" xmlns="http://www.w3.org/2000/svg">
  <defs>
    <linearGradient id="gradient" x1="0%" y1="0%" x2="100%" y2="0%">
      <stop offset="0%" stop-color="#dc2626" />
      <stop offset="50%" stop-color="#9d5353" />
      <stop offset="100%" stop-color="#22c55e" />
    </linearGradient>
  </defs>
  <g fill="url(#gradient)">
    <!-- Balance -->
    <path d="M256 50c5 0 9 4 9 9 0 3-2 6-4 7l-45 26 45 26c2 1 4 4 4 7 0 5-4 9-9 9s-9-4-9-9c0-1 0-2 1-3l-37-21-37 21c1 1 1 2 1 3 0 5-4 9-9 9s-9-4-9-9c0-3 2-6 4-7l45-26-45-26c-2-1-4-4-4-7 0-5 4-9 9-9s9 4 9 9c0 1 0 2-1 3l37 21 37-21c-1-1-1-2-1-3 0-5 4-9 9-9z"/>
    <!-- M -->
    <path d="M120 150c10 0 18 8 18 18v176l60-88c3-4 8-6 13-6 5 0 10 2 13 6l60 88V168c0-10 8-18 18-18s18 8 18 18v176c0 8-5 15-13 17-8 2-16-1-20-8l-76-112-76 112c-4 7-12 10-20 8-8-2-13-9-13-17V168c0-10 8-18 18-18z"/>
    <!-- C -->
    <path d="M392 150c35 0 64 28 64 64v84c0 36-29 64-64 64-36 0-64-28-64-64v-84c0-36 28-64 64-64zm0 36c-16 0-28 12-28 28v84c0 16 12 28 28 28 15 0 28-12 28-28v-84c0-16-13-28-28-28z"/>
  </g>
  <text x="256" y="420" font-family="serif" font-size="48" text-anchor="middle" fill="url(#gradient)">MoralChoice</text>
</svg>
